<svg width="1200" height="353" viewBox="0 0 1200 353" fill="none" xmlns="http://www.w3.org/2000/svg">
<path d="M282.354 0.184974H0V70.7473H282.354V0.184974Z" fill="black"/>
<path d="M952.453 0.184933H881.865V282.437H952.453V0.184933Z" fill="black"/>
<path d="M282.354 141.311H70.5891V211.873H282.354V141.311Z" fill="black"/>
<path d="M247.059 352.999H352.942V282.437H247.059V352.999Z" fill="black"/>
<path d="M677.27 76.2579C656.68 96.8404 629.305 108.175 600.187 108.175C571.07 108.175 543.695 96.8404 523.106 76.2579C502.748 55.9084 491.441 28.925 491.19 0.184712H423.731C424.261 97.1585 503.054 175.61 600.187 175.61C697.321 175.61 776.115 97.1585 776.645 0.184712H709.186C708.933 28.925 697.626 55.9084 677.27 76.2579Z" fill="black"/>
<path d="M1023.53 -8.61655e-06C1023.37 -8.61655e-06 1023.2 0.00616167 1023.04 0.00616167V67.4408C1023.2 67.4408 1023.37 67.4346 1023.53 67.4346C1052.65 67.4346 1080.02 78.7695 1100.61 99.3519C1121.2 119.933 1132.54 147.299 1132.54 176.405C1132.54 205.513 1121.2 232.877 1100.61 253.46C1080.02 274.042 1052.65 285.377 1023.53 285.377C1023.37 285.377 1023.2 285.371 1023.04 285.371H881.865V352.806H1023.04C1023.2 352.806 1023.37 352.812 1023.53 352.812C1120.99 352.812 1200 273.832 1200 176.405C1200 78.979 1120.99 -8.61655e-06 1023.53 -8.61655e-06Z" fill="black"/>
<path d="M600.188 178.555C503.382 178.555 424.797 256.479 423.743 353H491.201C491.699 324.626 502.98 298.026 523.105 277.907C543.695 257.324 571.07 245.99 600.188 245.99C629.306 245.99 656.68 257.324 677.27 277.907C697.395 298.026 708.676 324.626 709.174 353H776.632C775.579 256.479 696.993 178.555 600.188 178.555Z" fill="black"/>
<path d="M0 352.999H67.6476V141.311H0V352.999Z" fill="black"/>
</svg>
